<?xml version="1.0" standalone="no"?>
<!DOCTYPE svg PUBLIC "-//W3C//DTD SVG 20010904//EN"
 "http://www.w3.org/TR/2001/REC-SVG-20010904/DTD/svg10.dtd">
<svg version="1.0" xmlns="http://www.w3.org/2000/svg"
 width="1430.000000pt" height="1430.000000pt" viewBox="0 0 1430.000000 1430.000000"
 preserveAspectRatio="xMidYMid meet">
<metadata>
Created by potrace 1.14, written by Peter Selinger 2001-2017
</metadata>
<g transform="translate(0.000000,1430.000000) scale(0.100000,-0.100000)"
fill="#000000" stroke="none">
<path d="M252 7548 l0 -4102 399 -399 399 -399 700 0 c385 -1 703 2 707 6 3 3
6 821 7 1818 l1 1813 347 0 c302 0 348 -2 349 -15 0 -8 1 -647 1 -1420 l1
-1405 398 -399 398 -398 701 0 c385 -1 703 2 706 5 4 3 6 1849 6 4103 l0 4097
-398 398 -399 399 -706 0 -706 0 -1 -1652 c0 -909 -1 -1661 -1 -1671 -1 -16
-23 -17 -348 -15 l-348 3 -1 1268 c-1 697 -4 1271 -8 1275 -4 4 -183 184 -399
399 l-392 393 -707 0 -706 0 0 -4102z"/>
<path d="M8923 7548 l0 -4103 399 -399 398 -398 1123 0 c617 0 1158 3 1202 7
44 4 94 8 110 10 141 11 353 51 487 90 388 116 679 307 923 606 130 160 269
442 344 699 34 117 86 373 96 465 3 33 8 78 11 100 24 175 27 403 27 2115 0
1516 -4 1988 -18 2060 -2 12 -7 49 -10 83 -3 34 -8 78 -10 97 -3 19 -7 51 -10
70 -2 20 -18 103 -35 185 -53 254 -146 507 -260 705 -20 36 -61 108 -90 160
-30 52 -77 131 -106 175 -50 78 -200 285 -214 295 -4 3 -32 35 -63 71 -72 86
-249 259 -357 349 -83 69 -320 233 -410 283 -71 40 -288 147 -370 182 -181 78
-449 150 -635 171 -33 3 -69 9 -80 12 -11 3 -567 7 -1236 9 l-1216 4 0 -4103z
m2825 2141 c34 -1 65 -5 67 -9 15 -25 19 -415 19 -2130 0 -1741 -3 -2046 -20
-2160 -61 -416 -199 -618 -487 -715 -57 -19 -161 -45 -180 -45 -13 0 -15 293
-15 2530 l0 2529 72 3 c73 3 432 1 544 -3z"/>
<path d="M6794 10851 c-2 -2 -4 -28 -4 -57 l0 -53 157 -3 156 -3 1 -174 c1
-138 -2 -175 -13 -179 -7 -3 -77 -6 -155 -6 l-141 -1 -3 -52 c-3 -48 -1 -53
20 -57 13 -3 173 -4 357 -3 l335 2 0 55 1 55 -135 2 c-74 1 -142 2 -150 2 -13
1 -15 27 -15 179 l0 177 150 5 150 5 1 53 c1 28 -1 53 -5 53 -18 4 -703 3
-707 0z"/>
<path d="M6795 9757 c-3 -7 -4 -32 -2 -57 l2 -45 85 -29 c47 -16 87 -31 90
-33 9 -8 6 -285 -5 -297 -5 -7 -41 -23 -80 -36 -38 -13 -75 -27 -82 -32 -7 -6
-12 -33 -12 -65 1 -46 4 -53 18 -48 9 3 162 60 341 126 179 65 332 123 339
127 11 6 15 28 16 74 l2 66 -196 72 c-108 40 -205 76 -216 81 -17 8 -62 24
-258 95 -29 10 -39 11 -42 1z m448 -262 c75 -27 137 -51 137 -54 0 -5 -152
-62 -165 -62 -2 0 -32 -11 -66 -25 -35 -13 -65 -22 -67 -19 -4 4 -6 154 -3
204 1 7 7 11 14 9 6 -3 74 -26 150 -53z"/>
<path d="M6819 8612 c-24 -3 -26 -7 -28 -58 -1 -45 1 -54 16 -55 25 -1 654 -1
679 0 19 1 21 7 20 56 0 42 -4 55 -16 56 -55 2 -650 3 -671 1z"/>
<path d="M6790 7886 c0 -34 5 -55 13 -58 6 -2 65 -4 130 -3 l117 1 0 -121 -1
-120 -127 -70 -127 -70 -3 -69 c-3 -81 -16 -82 150 14 66 38 123 70 127 70 3
0 20 -21 36 -45 41 -62 95 -87 177 -84 106 4 169 48 203 142 16 43 19 84 20
259 l1 208 -358 0 -358 0 0 -54z m611 -76 c1 -8 1 -70 1 -136 0 -96 -4 -130
-18 -159 -39 -84 -167 -86 -210 -4 -12 24 -16 62 -16 163 0 72 0 136 1 141 1
6 47 10 121 10 99 0 120 -3 121 -15z"/>
<path d="M6813 6162 c-21 -3 -22 -6 -21 -163 0 -177 13 -257 54 -327 50 -85
150 -133 288 -137 156 -4 273 50 325 153 36 70 44 124 45 300 l2 172 -31 1
c-95 3 -644 3 -662 1z m588 -140 c6 -158 -6 -235 -48 -291 -70 -92 -287 -106
-384 -24 -53 45 -72 102 -75 229 l-4 111 255 1 255 0 1 -26z"/>
<path d="M6793 5034 l2 -56 84 -29 c47 -16 87 -32 90 -35 7 -7 8 -282 1 -293
-3 -4 -43 -21 -90 -38 l-85 -31 -3 -56 c-2 -34 1 -56 7 -56 6 0 122 41 258 91
137 51 276 102 311 114 35 13 66 25 69 29 4 3 14 6 24 6 34 0 46 25 44 89 -1
34 -4 63 -6 64 -11 10 -683 257 -697 257 -7 0 -10 -20 -9 -56z m454 -216 c108
-39 141 -54 127 -60 -53 -21 -274 -98 -283 -98 -13 0 -12 -3 -14 118 -2 70 1
92 11 92 7 0 79 -23 159 -52z"/>
<path d="M7474 4110 c-5 -5 -104 -68 -219 -140 l-210 -130 -127 0 -128 0 0
-55 c0 -37 4 -55 13 -56 6 -1 64 -2 128 -3 l116 -1 129 -79 c71 -44 158 -98
194 -121 36 -23 81 -51 100 -63 l36 -21 -1 67 0 67 -173 104 -172 103 162 99
c90 54 168 102 173 107 14 11 13 124 0 129 -6 2 -15 -1 -21 -7z"/>
</g>
</svg>
